<svg id="Layer_1" data-name="Layer 1" xmlns="http://www.w3.org/2000/svg" viewBox="0 0 86.67 86.67"><title>add</title><path d="M43.34,0A42,42,0,0,1,65,5.85,43.86,43.86,0,0,1,80.82,21.67a42,42,0,0,1,5.85,21.67A42,42,0,0,1,80.82,65,43.78,43.78,0,0,1,65,80.82a42,42,0,0,1-21.66,5.85,42,42,0,0,1-21.67-5.85A43.86,43.86,0,0,1,5.85,65,42,42,0,0,1,0,43.34,42,42,0,0,1,5.85,21.67,43.94,43.94,0,0,1,21.67,5.85,42,42,0,0,1,43.34,0ZM68.5,48.23V38.44a2.08,2.08,0,0,0-2.1-2.09H50.33V20.27a2.1,2.1,0,0,0-2.1-2.1H38.44a2.08,2.08,0,0,0-2.09,2.1V36.35H20.27a2.08,2.08,0,0,0-2.1,2.09v9.79a2.1,2.1,0,0,0,2.1,2.1H36.35V66.4a2.08,2.08,0,0,0,2.09,2.1h9.79a2,2,0,0,0,1.48-.61,2,2,0,0,0,.62-1.49V50.33H66.4a2,2,0,0,0,1.49-.62A2,2,0,0,0,68.5,48.23Z"/></svg>