<svg id="Layer_1" data-name="Layer 1" xmlns="http://www.w3.org/2000/svg" viewBox="0 0 67.5 60"><title>альбом</title><path d="M50.86,36.68a.95.95,0,0,1,1.64.7v17A5.6,5.6,0,0,1,46.88,60H5.63a5.43,5.43,0,0,1-4-1.64,5.43,5.43,0,0,1-1.64-4V13.13a5.43,5.43,0,0,1,1.64-4,5.43,5.43,0,0,1,4-1.64h32.1a.82.82,0,0,1,.82.59.9.9,0,0,1-.23,1.05l-3.75,3.75a.79.79,0,0,1-.59.24H5.63V54.38H46.88V41a.78.78,0,0,1,.23-.59ZM34.69,47.58,24.14,48.75a4.91,4.91,0,0,1-5.39-5.39l1.17-10.55L50.74,2a6.94,6.94,0,0,1,9.73,0l5,5a6.61,6.61,0,0,1,2,4.86,6.62,6.62,0,0,1-2,4.87Zm12.42-34-21.8,21.8L24.49,43l7.62-.82,21.8-21.8ZM56.48,6a1.27,1.27,0,0,0-1.75,0L51.09,9.61l6.8,6.8,3.63-3.64a1.24,1.24,0,0,0,0-1.75Z"/></svg>