<svg id="Слой_1" data-name="Слой 1" xmlns="http://www.w3.org/2000/svg" viewBox="0 0 626 165.24"><defs><style>.cls-1{fill:#fff;}</style></defs><title>logo</title><path class="cls-1" d="M117.31,105.17c4.47,7.63,7.58,15.57,7.8,24.41C125.34,138.7,123,147,117,154c-5.55,6.54-14,8.53-21.49,5.19-5.47-2.43-8.68-6.89-10.61-12.4-2.64-7.53-2.09-15.1-.15-22.65a94.83,94.83,0,0,1,8.54-20.81c.18-.34.36-.7.68-1.33-2.33-1.18-4.58-2.46-6.94-3.5-8.48-3.72-17.44-5.71-26.54-7.16a242.42,242.42,0,0,0-36.41-3H8.38L7.59,73c1.39-.08,2.65-.18,3.91-.21A276.33,276.33,0,0,1,63.37,76c11.81,2,23.38,4.85,34.13,10.35,1.57.8,3.09,1.69,4.74,2.6,1.57-2,3.08-4,4.68-5.88A262.5,262.5,0,0,1,133.19,56.4c16.69-15,34.72-28.18,54.68-38.58C202,10.52,216.62,4.64,232.32,1.74c5.9-1.08,11.84-2.1,17.86-1.62,5.19.42,10.48,1,14.84,4.22,6.41,4.7,8.92,11.28,8.32,19.09A30.43,30.43,0,0,1,270,34.68,4.81,4.81,0,0,1,269,36c-12.36,12-24.92,23.74-37,36-8.33,8.41-18.73,13.16-29.12,18a54.07,54.07,0,0,1-18.43,5.41c-4.44.37-8.68-.19-12.23-3.15-4.48-3.75-5.36-8.77-4.5-14.19.93-5.88,4.38-10.33,8.71-14.14,6.94-6.11,15.13-10,23.76-13a119.57,119.57,0,0,1,38.3-6.75,7.26,7.26,0,0,1,1.62.06c2.34.51,4-.29,5.59-2.12,3.87-4.47,7.84-8.86,10.3-14.31a23.88,23.88,0,0,0,1.75-6,4.75,4.75,0,0,0-3.73-5.52,31,31,0,0,0-11.28-.45c-11,1.11-21.45,4.36-31.63,8.51-19.78,8-37.63,19.34-54.29,32.59A332.77,332.77,0,0,0,122,89.42a94.32,94.32,0,0,0-16.37,24.34,83.58,83.58,0,0,0-6.21,16c-1.05,4.28-1.29,8.55.57,12.71a8.67,8.67,0,0,0,.62,1.17c1.2,1.86,2.89,2.21,4.21.48a27.46,27.46,0,0,0,3.69-6.45c1.69-4.25,1.39-8.65.28-13a7.55,7.55,0,0,1,0-3.71,43.61,43.61,0,0,1,8.09-15.44A2.9,2.9,0,0,1,117.31,105.17Zm66.06-25.75.42.58c14.16-3.35,26.34-10.86,38.45-18.55a1.85,1.85,0,0,0-1.06-.1,97.42,97.42,0,0,0-22.45,7c-4.79,2.2-9.44,4.66-13.22,8.43A30,30,0,0,0,183.37,79.42Z"/><path class="cls-1" d="M263.83,74.41a69.58,69.58,0,0,1-4.2,16.49,111.29,111.29,0,0,1-25.11,38.5c-7.8,8-15.93,15.5-25.14,21.8-5.7,3.9-11.65,7.33-18.45,9a18.54,18.54,0,0,1-11.32-.31c-7-2.7-10.07-10-7.56-17.73A46.6,46.6,0,0,1,180.79,127c6.16-7.46,12.38-14.91,19-21.94q12.45-13.19,25.63-25.67C251,55.13,278.92,34,310.8,18.48c12.79-6.22,25.86-11.77,39.81-14.83a106.92,106.92,0,0,1,16.61-2.23c4.76-.28,9.67.24,13.72,3.12,6.15,4.38,8.62,10.7,8.25,18.09-.36,7.15-3.37,13.43-7.49,19.09-1.83,2.51-4.41,4.47-6.68,6.64-7.87,7.56-15.62,15.25-23.69,22.59a68.93,68.93,0,0,1-10.63,7.39C331,84.26,321,89.71,310.19,93.27a35.45,35.45,0,0,1-13.29,2.16c-9.07-.57-14.44-7-13.5-16.11.63-6.1,3.83-10.75,8.14-14.76,6.29-5.86,13.82-9.68,21.77-12.7a119,119,0,0,1,41.21-7.75,5.77,5.77,0,0,1,1.47,0c2.54.65,4.17-.54,5.79-2.38,3.93-4.49,7.9-9,10.27-14.49a20.5,20.5,0,0,0,1.52-6.38c.2-2.59-1.14-3.86-3.75-4.1-5-.46-9.79.56-14.57,1.72-15.08,3.66-29.24,9.74-43,16.78a296,296,0,0,0-47.7,30.62A322.39,322.39,0,0,0,236.86,90c-8.36,8.25-16.78,16.46-24.95,24.9s-15.9,16.78-22.3,26.47a14.25,14.25,0,0,0-1.77,3.66c.67-.22,1.37-.39,2-.66A70.4,70.4,0,0,0,206.56,134a145.28,145.28,0,0,0,28.21-29.16c2.1-3,3.75-6.22,5.68-9.3a12.55,12.55,0,0,1,2.24-2.8C249,87.11,255.45,81.59,261.84,76,262.39,75.58,263,75.13,263.83,74.41ZM338,61.68l-.12-.39a10.63,10.63,0,0,0-1.14.1,99,99,0,0,0-18.37,5.26c-6,2.42-11.8,5.15-16.59,9.62a32.64,32.64,0,0,0-2.71,3.24l.44.5C313.66,76.69,325.83,69.17,338,61.68Z"/><path class="cls-1" d="M607.71,76.43,620,86.36c-3.25,3-6.24,6.07-9.51,8.78-12.14,10.09-25.44,18.48-39,26.41a432.41,432.41,0,0,1-57,28.22c-10.09,4-20.33,7.63-31,9.69a80.38,80.38,0,0,1-25.66,1.3,30.52,30.52,0,0,1-11.46-3.59,18.12,18.12,0,0,1-9.16-19.46A42.21,42.21,0,0,1,445,119.95c5.74-8,11.77-15.75,17.81-23.51,6.77-8.69,13.88-17.12,19.45-26.67A42.93,42.93,0,0,0,485,63.45c.29-.76.48-1.7-.6-2.31s-1.66-.26-2.46.44a177.74,177.74,0,0,1-48.77,30.25,43.47,43.47,0,0,1-14.76,3.87A24.38,24.38,0,0,1,410.6,95c-6.17-1.78-9.69-7.51-9.34-14.08.33-6.2,3.49-10.84,7.81-14.87,6.54-6.09,14.32-10.16,22.54-13.43a113.41,113.41,0,0,1,43-8.51c4.62,0,9.25.14,13.64,1.89a23,23,0,0,1,9.94,7.38c2.78,3.61,2.92,7.84,2.2,12.11-1,5.73-3.65,10.77-6.66,15.63-5.14,8.3-11.4,15.77-17.38,23.45q-9.73,12.51-19.12,25.28a24,24,0,0,0-4.64,10.26c-.34,2.06.13,3,2.06,3.86A25.49,25.49,0,0,0,465,145.77a87.76,87.76,0,0,0,25.68-4.11c15-4.45,29.21-10.75,43.2-17.63A417.39,417.39,0,0,0,584,95.32c6.54-4.43,12.72-9.4,19-14.24A54.6,54.6,0,0,0,607.71,76.43ZM456.57,61.68l-.13-.38a7.52,7.52,0,0,0-.86.08A101.73,101.73,0,0,0,437,67.11c-6,2.5-11.76,5.28-16.72,9.51a42.38,42.38,0,0,0-3.08,3.21l.41.55C431.94,76.95,444.28,69.36,456.57,61.68Z"/><path class="cls-1" d="M310.53,144.58q2-.5,4-1.2a50,50,0,0,0,14-9.17A135,135,0,0,0,358.21,98a31,31,0,0,1,7.55-9.19c5.15-4.26,10.12-8.75,15.16-13.13a1.61,1.61,0,0,1,1-.42c-.45,2.62-.79,5.26-1.38,7.85a90.83,90.83,0,0,1-14.64,32.28c-8.38,11.9-17.8,22.9-29.06,32.22-6.06,5-12.54,9.35-20.23,11.5a23.59,23.59,0,0,1-10.51.6,14.2,14.2,0,0,1-11.56-13.58c-.17-5.91,2.11-11,5-16a128,128,0,0,1,17.93-23.54C326.09,97.35,334.71,88,344,79.4c16-14.78,32.36-29.15,50.78-41C412.4,27.08,430.61,17,450.27,9.6c10-3.75,20.21-6.9,31-7.59a51.15,51.15,0,0,1,11.44.49c7.89,1.29,12,6.7,14,14a22.81,22.81,0,0,1-.26,11.66c-1.46,5.71-4.32,10.71-7.76,15.58a28.19,28.19,0,0,0-14.92-5.9c1.66-2.47,3.41-4.68,4.72-7.12a61,61,0,0,0,3.06-7.46,5.23,5.23,0,0,0,.17-2c-.13-2.56-1.22-3.77-3.74-4-4.37-.46-8.63.34-12.86,1.29-13.26,3-25.79,8-38,13.79A285.59,285.59,0,0,0,383,66a367.66,367.66,0,0,0-31.13,27.32c-9.26,9.18-18.46,18.39-26.92,28.33a107,107,0,0,0-12.34,16.88c-1,1.77-1.71,3.7-2.55,5.55Z"/></svg>