<svg id="Layer_1" data-name="Layer 1" xmlns="http://www.w3.org/2000/svg" viewBox="0 0 173.71 20.65"><title>logo</title><path d="M14.42,16.43H6L4.33,20.34H0L8.14,2.09h4.17l8.16,18.25H16Zm-1.33-3.21-2.89-7-2.9,7Z"/><path d="M36.19,6.31v14H32.12V9.65H27.69l-.13,2.48A25.13,25.13,0,0,1,27,16.71a6.25,6.25,0,0,1-1.36,2.87,3.3,3.3,0,0,1-2.6,1.05A8.8,8.8,0,0,1,21,20.31L21.17,17c.28,0,.48.05.6.05a1.53,1.53,0,0,0,1.37-.67,3.89,3.89,0,0,0,.61-1.69A25.13,25.13,0,0,0,24,11.94l.21-5.63Z"/><path d="M51.89,12a4.23,4.23,0,0,1,1.46,3.43,4.33,4.33,0,0,1-1.63,3.61,7.21,7.21,0,0,1-4.58,1.29l-7,0v-14h4V10.8h3.54A6.51,6.51,0,0,1,51.89,12Zm-3.31,5a2,2,0,0,0,.62-1.57,1.76,1.76,0,0,0-.61-1.49,3.1,3.1,0,0,0-1.81-.49l-2.63,0v4.07h2.63A2.68,2.68,0,0,0,48.58,17Z"/><path d="M67.51,8.1a5.67,5.67,0,0,1,2.33,2.3,7,7,0,0,1,.82,3.45,6.34,6.34,0,0,1-3.7,6,8.86,8.86,0,0,1-4,.85,7.32,7.32,0,0,1-5.78-2.36q-2.1-2.36-2.1-6.92A11.22,11.22,0,0,1,57,4.63a8.87,8.87,0,0,1,5.65-3.3L69.28,0l.55,3.49L63.94,4.67a7.06,7.06,0,0,0-3.56,1.56A4.76,4.76,0,0,0,59,9.33,6.25,6.25,0,0,1,61.2,7.81,7.08,7.08,0,0,1,64,7.27,7.24,7.24,0,0,1,67.51,8.1Zm-2,8.38a3.65,3.65,0,0,0,.95-2.58A3.25,3.25,0,0,0,63,10.43a3.47,3.47,0,0,0-2.55.94,3.34,3.34,0,0,0-1,2.53,3.53,3.53,0,0,0,1,2.59,3.41,3.41,0,0,0,2.53,1A3.27,3.27,0,0,0,65.54,16.48Z"/><path d="M76,19.62a6.89,6.89,0,0,1-2.75-2.57,7,7,0,0,1-1-3.73,7,7,0,0,1,1-3.72A6.82,6.82,0,0,1,76,7a8.41,8.41,0,0,1,4-.93A8.27,8.27,0,0,1,84,7,6.79,6.79,0,0,1,86.7,9.6a7,7,0,0,1,1,3.72,7,7,0,0,1-1,3.73A6.86,6.86,0,0,1,84,19.62a8.27,8.27,0,0,1-4,.93A8.41,8.41,0,0,1,76,19.62Zm6.55-3.47a3.91,3.91,0,0,0,1-2.83,3.91,3.91,0,0,0-1-2.82,3.66,3.66,0,0,0-5.15,0,3.87,3.87,0,0,0-1,2.82,3.88,3.88,0,0,0,1,2.83,3.66,3.66,0,0,0,5.15,0Z"/><path d="M104.17,20.34v-8.4L100,19H98.25l-4.09-7.06v8.42H90.48v-14h4.25l4.49,8.11L104,6.31h3.8l.06,14Z"/><path d="M125.29,15h-2.11v5.32h-4.07v-14h4.07v5.45h2.19l3.81-5.45h4.32L128.6,13l5.24,7.3H129Z"/><path d="M138,19.62a6.89,6.89,0,0,1-2.75-2.57,7,7,0,0,1-1-3.73,7,7,0,0,1,1-3.72A6.82,6.82,0,0,1,138,7a8.41,8.41,0,0,1,4-.93,8.27,8.27,0,0,1,4,.93,6.79,6.79,0,0,1,2.74,2.57,7,7,0,0,1,1,3.72,7,7,0,0,1-1,3.73,6.86,6.86,0,0,1-2.74,2.57,8.27,8.27,0,0,1-4,.93A8.41,8.41,0,0,1,138,19.62Zm6.55-3.47a3.91,3.91,0,0,0,1-2.83,3.91,3.91,0,0,0-1-2.82A3.38,3.38,0,0,0,142,9.44a3.42,3.42,0,0,0-2.58,1.06,3.87,3.87,0,0,0-1,2.82,3.88,3.88,0,0,0,1,2.83A3.42,3.42,0,0,0,142,17.21,3.38,3.38,0,0,0,144.55,16.15Z"/><path d="M165.92,15h-2v5.32h-4V15H158l-3,5.32h-4.8l4.41-7.25-4.1-6.78h4.3l3.11,5.45h2V6.31h4v5.45h2l3.13-5.45h4.3l-4.09,6.78,4.43,7.25h-4.82Z"/></svg>