<svg id="Layer_1" data-name="Layer 1" xmlns="http://www.w3.org/2000/svg" viewBox="0 0 52.59 60.11"><defs><style>.cls-1{fill:#fff;}</style></defs><title>remove-w</title><path class="cls-1" d="M51.68,10.25a2.7,2.7,0,0,1,.82,2v1.41a1.39,1.39,0,0,1-.41,1,1.37,1.37,0,0,1-1,.41H48.75V54.43a5.6,5.6,0,0,1-5.63,5.63H9.37a5.6,5.6,0,0,1-5.62-5.63V15.06H1.41a1.37,1.37,0,0,1-1-.41,1.39,1.39,0,0,1-.41-1V12.24a2.7,2.7,0,0,1,.82-2,2.74,2.74,0,0,1,2-.82h8.67l4-6.68A5.72,5.72,0,0,1,20.39.06H32.11A5.72,5.72,0,0,1,37,2.75l4,6.68h8.67A2.74,2.74,0,0,1,51.68,10.25ZM9.37,15.06V53.73a.83.83,0,0,0,.71.7H42.42a.7.7,0,0,0,.47-.23.67.67,0,0,0,.23-.47V15.06ZM22.5,47.4a1.39,1.39,0,0,1-.41,1,1.37,1.37,0,0,1-1,.41H18.28a1.4,1.4,0,0,1-1.41-1.41V22.09a1.4,1.4,0,0,1,1.41-1.41h2.81a1.37,1.37,0,0,1,1,.41,1.39,1.39,0,0,1,.41,1Zm12-38L32.34,6a.68.68,0,0,0-.58-.35h-11a.68.68,0,0,0-.58.35l-2.11,3.4Zm-3,11.25a1.37,1.37,0,0,0-1,.41,1.39,1.39,0,0,0-.41,1V47.4a1.39,1.39,0,0,0,.41,1,1.37,1.37,0,0,0,1,.41h2.81a1.4,1.4,0,0,0,1.4-1.41V22.09a1.4,1.4,0,0,0-1.4-1.41Z"/></svg>