<svg id="Layer_1" data-name="Layer 1" xmlns="http://www.w3.org/2000/svg" viewBox="0 0 219.48 219.48"><defs><style>.cls-1{fill:#fff;}</style></defs><title>search</title><path class="cls-1" d="M211,197.58l-68.15-68.15c14-18.26,19.54-38.55,14.88-61a71.34,71.34,0,0,0-30.27-45.58,73.49,73.49,0,0,0-98,107.74c24.31,29,68.66,36.43,102.09,10.1q34.17,34.15,68.2,68.2Z"/><path d="M131.53,140.65C98.1,167,53.75,159.57,29.44,130.55a73.49,73.49,0,0,1,98-107.74,71.34,71.34,0,0,1,30.27,45.58c4.66,22.49-.88,42.78-14.88,61L211,197.58l-11.26,11.27Q165.77,174.89,131.53,140.65ZM27.67,83.24a58.08,58.08,0,1,0,58-58A57.9,57.9,0,0,0,27.67,83.24Z"/></svg>